<svg width="414" height="355" viewBox="0 0 414 355" fill="none" xmlns="http://www.w3.org/2000/svg">
<path fill-rule="evenodd" clip-rule="evenodd" d="M114.375 107.666C115.665 105.875 116.676 103.851 117.303 101.568C122.039 84.3385 107.387 73.1573 95.4629 70.2565C83.5383 67.3556 43.9312 98.665 87.2807 120.186C87.3977 120.18 87.5165 120.172 87.6371 120.165C94.5831 125.661 96.8051 132.915 99.4712 141.618C100.559 145.168 101.72 148.959 103.306 152.97L123.128 137.315C123.57 125.646 120.413 116.331 114.375 107.666Z" fill="#F5B9AB"/>
<path d="M117.303 101.568L117.978 101.754L117.978 101.754L117.303 101.568ZM114.375 107.666L113.807 107.257C113.634 107.498 113.631 107.823 113.801 108.066L114.375 107.666ZM95.4629 70.2565L95.6282 69.5769L95.4629 70.2565ZM87.2807 120.186L86.9697 120.813C87.078 120.866 87.1984 120.891 87.3191 120.884L87.2807 120.186ZM87.6371 120.165L88.0711 119.616C87.9352 119.508 87.7641 119.455 87.5911 119.467L87.6371 120.165ZM99.4712 141.618L100.14 141.413L99.4712 141.618ZM103.306 152.97L102.655 153.227C102.737 153.433 102.911 153.588 103.124 153.646C103.338 153.703 103.566 153.656 103.739 153.519L103.306 152.97ZM123.128 137.315L123.562 137.864C123.722 137.737 123.819 137.546 123.827 137.341L123.128 137.315ZM116.629 101.383C116.025 103.58 115.051 105.529 113.807 107.257L114.943 108.075C116.278 106.22 117.327 104.121 117.978 101.754L116.629 101.383ZM95.2976 70.9361C101.142 72.3578 107.649 75.8117 112.1 80.9947C116.53 86.1531 118.927 93.0204 116.629 101.383L117.978 101.754C120.415 92.8865 117.854 85.5482 113.161 80.0833C108.489 74.6431 101.708 71.0559 95.6282 69.5769L95.2976 70.9361ZM87.5918 119.56C76.8403 114.222 71.3609 108.34 69.2499 102.654C67.1458 96.9865 68.3352 91.3674 71.2469 86.4177C74.1641 81.4586 78.7865 77.2215 83.4209 74.4055C85.7356 72.9991 88.0352 71.9582 90.1045 71.3581C92.1869 70.7541 93.9745 70.6142 95.2976 70.9361L95.6282 69.5769C93.9702 69.1735 91.9116 69.3775 89.7148 70.0146C87.505 70.6555 85.0926 71.7529 82.6945 73.21C77.9035 76.1212 73.0976 80.5127 70.0412 85.7084C66.9792 90.9136 65.6496 96.9757 67.9385 103.141C70.2207 109.288 76.0464 115.39 86.9697 120.813L87.5918 119.56ZM87.5911 119.467C87.4731 119.474 87.3568 119.481 87.2424 119.488L87.3191 120.884C87.4387 120.878 87.56 120.871 87.6831 120.862L87.5911 119.467ZM100.14 141.413C97.4829 132.739 95.2129 125.267 88.0711 119.616L87.2031 120.713C93.9533 126.055 96.1274 133.09 98.8024 141.823L100.14 141.413ZM103.956 152.713C102.382 148.731 101.228 144.965 100.14 141.413L98.8024 141.823C99.8892 145.37 101.058 149.187 102.655 153.227L103.956 152.713ZM122.695 136.766L102.872 152.421L103.739 153.519L123.562 137.864L122.695 136.766ZM113.801 108.066C119.759 116.615 122.865 125.782 122.429 137.289L123.827 137.341C124.275 125.509 121.068 116.046 114.949 107.266L113.801 108.066Z" fill="black"/>
<path d="M69.2294 101.666C69.052 108.418 80.1789 117.235 84.6748 118.277C55.1064 120.956 50.4302 84.8374 60.3866 85.2364C54.7117 74.5648 63.7319 63.3081 77.2179 66.4296C86.0103 37.4441 105.263 63.5661 101.156 72.3201C97.0494 81.0741 86.0635 82.8625 83.1616 87.9095C80.2597 92.9566 86.2456 107.513 80.0368 101.396C73.8281 95.2786 69.4511 93.2251 69.2294 101.666Z" fill="#00ADB5" stroke="black" stroke-width="1.39887"/>
<path d="M197.864 196.774C210.62 167.384 169.652 137.401 160.615 131.243C159.454 130.452 158.275 129.756 157.046 129.074C133.529 116.013 100.434 114.304 88.3872 138.356C67.3292 180.398 119.829 224.289 139.22 252.247L197.864 196.774Z" fill="#EEEEEE"/>
<path d="M160.615 131.243L161.009 130.665L160.615 131.243ZM197.864 196.774L198.345 197.282L198.449 197.184L198.506 197.052L197.864 196.774ZM139.22 252.247L138.645 252.645C138.761 252.813 138.945 252.921 139.147 252.942C139.35 252.963 139.552 252.895 139.7 252.755L139.22 252.247ZM88.3872 138.356L87.7619 138.042L88.3872 138.356ZM157.046 129.074L157.386 128.463L157.046 129.074ZM160.221 131.821C164.721 134.888 177.157 143.878 186.871 155.74C196.609 167.632 203.435 182.182 197.222 196.495L198.506 197.052C205.049 181.976 197.769 166.84 187.953 154.853C178.112 142.837 165.546 133.757 161.009 130.665L160.221 131.821ZM197.383 196.266L138.739 251.739L139.7 252.755L198.345 197.282L197.383 196.266ZM139.794 251.848C134.923 244.824 127.976 236.804 120.671 228.119C113.352 219.416 105.654 210.023 99.2203 200.2C86.3368 180.527 78.6596 159.338 89.0126 138.669L87.7619 138.042C77.0568 159.415 85.1006 181.193 98.0501 200.966C104.533 210.866 112.28 220.315 119.6 229.019C126.934 237.74 133.821 245.69 138.645 252.645L139.794 251.848ZM156.707 129.685C157.925 130.362 159.085 131.046 160.221 131.821L161.009 130.665C159.824 129.857 158.624 129.15 157.386 128.463L156.707 129.685ZM157.386 128.463C145.53 121.878 131.242 118.142 118.364 119.1C105.468 120.06 93.9236 125.74 87.7619 138.042L89.0126 138.669C94.8981 126.919 105.924 121.428 118.468 120.495C131.028 119.56 145.046 123.209 156.707 129.685L157.386 128.463Z" fill="black"/>
<path d="M213.68 181.568L193.339 157.621L163.777 180.647C159.091 146.9 121.546 119.692 107.019 123.459C67.9654 133.588 112.243 221.239 140.491 233.922C168.739 246.606 213.68 181.568 213.68 181.568Z" fill="#EEEEEE" stroke="black" stroke-width="1.39887"/>
<path d="M195.103 155.683L192.521 158.259L213.19 182.272L217.409 178.075C224.484 171.036 223.345 159.283 215.049 153.735C208.786 149.547 200.437 150.362 195.103 155.683Z" fill="#F5B9AB" stroke="black" stroke-width="1.39887" stroke-linejoin="round"/>
<path fill-rule="evenodd" clip-rule="evenodd" d="M91.9355 249.665C91.6057 249.579 91.2737 249.822 91.2743 250.163L91.4331 341.339H73.1881C72.9108 341.339 72.6859 341.564 72.6859 341.841L72.6859 352.941C72.6859 353.218 72.9108 353.443 73.1881 353.443H125.094C125.372 353.443 125.596 353.218 125.596 352.941V341.841C125.596 341.564 125.372 341.339 125.094 341.339H105.279V249.688C105.279 249.389 105.019 249.156 104.722 249.19C103.727 249.304 102.794 249.421 101.91 249.532C97.8482 250.044 94.855 250.421 91.9355 249.665Z" fill="#00ADB5"/>
<path d="M91.2743 250.163L90.5748 250.164V250.164L91.2743 250.163ZM91.9355 249.665L92.1108 248.988V248.988L91.9355 249.665ZM91.4331 341.339V342.039H92.1338L92.1326 341.338L91.4331 341.339ZM72.6859 341.841H73.3853H72.6859ZM72.6859 352.941H71.9865H72.6859ZM105.279 341.339H104.579V342.039H105.279V341.339ZM104.722 249.19L104.642 248.495L104.642 248.495L104.722 249.19ZM101.91 249.532L101.823 248.838L101.91 249.532ZM91.9737 250.161C91.9738 250.23 91.9378 250.286 91.899 250.315C91.8621 250.342 91.8109 250.355 91.7601 250.342L92.1108 248.988C91.366 248.795 90.5734 249.336 90.5748 250.164L91.9737 250.161ZM92.1326 341.338L91.9737 250.161L90.5748 250.164L90.7337 341.34L92.1326 341.338ZM73.1881 342.039H91.4331V340.64H73.1881V342.039ZM73.3853 341.841C73.3853 341.95 73.297 342.039 73.1881 342.039V340.64C72.5245 340.64 71.9865 341.178 71.9865 341.841H73.3853ZM73.3853 352.941L73.3853 341.841H71.9865L71.9865 352.941H73.3853ZM73.1881 352.743C73.297 352.743 73.3853 352.832 73.3853 352.941H71.9865C71.9865 353.604 72.5245 354.142 73.1881 354.142V352.743ZM125.094 352.743H73.1881V354.142H125.094V352.743ZM124.897 352.941C124.897 352.832 124.985 352.743 125.094 352.743V354.142C125.758 354.142 126.296 353.604 126.296 352.941H124.897ZM124.897 341.841V352.941H126.296V341.841H124.897ZM125.094 342.039C124.985 342.039 124.897 341.95 124.897 341.841H126.296C126.296 341.178 125.758 340.64 125.094 340.64V342.039ZM105.279 342.039H125.094V340.64H105.279V342.039ZM104.579 249.688V341.339H105.978V249.688H104.579ZM104.801 249.885C104.682 249.898 104.579 249.805 104.579 249.688H105.978C105.978 248.972 105.356 248.413 104.642 248.495L104.801 249.885ZM101.998 250.226C102.881 250.115 103.811 249.998 104.801 249.885L104.642 248.495C103.643 248.609 102.706 248.727 101.823 248.838L101.998 250.226ZM91.7601 250.342C94.8346 251.138 97.9712 250.733 101.998 250.226L101.823 248.838C97.7253 249.354 94.8754 249.704 92.1108 248.988L91.7601 250.342Z" fill="black"/>
<path d="M70.3887 158.789C82.3219 187.232 59.9097 197.653 60.1709 216.561C60.5323 242.727 103.206 267.975 129.912 213.303" stroke="black" stroke-width="1.39887"/>
<rect x="22.3704" y="103.916" width="32.5071" height="105.129" rx="15.8191" transform="rotate(-22.7603 22.3704 103.916)" fill="#00ADB5" stroke="black" stroke-width="1.39887"/>
<rect x="316.189" y="211.309" width="15.5619" height="142.132" rx="0.502194" fill="#00ADB5" stroke="black" stroke-width="1.39887"/>
<rect x="199.858" y="210.664" width="52.107" height="112.515" rx="24.5617" transform="rotate(88.7489 199.858 210.664)" fill="#00ADB5" stroke="black" stroke-width="1.39887"/>
<rect x="411.967" y="184.052" width="32.5071" height="176.822" rx="15.8191" transform="rotate(88.7489 411.967 184.052)" fill="#00ADB5" stroke="black" stroke-width="1.39887"/>
<rect x="386.425" y="98.9033" width="82.9969" height="15.5619" rx="2.00878" transform="rotate(105 386.425 98.9033)" fill="#00ADB5" stroke="black" stroke-width="1.39887"/>
<rect x="285.245" y="170.956" width="82.9969" height="15.5619" rx="2.00878" fill="#EEEEEE" stroke="black" stroke-width="1.39887"/>
</svg>
